<?xml version="1.0" standalone="no"?><!DOCTYPE svg PUBLIC "-//W3C//DTD SVG 1.1//EN" "http://www.w3.org/Graphics/SVG/1.1/DTD/svg11.dtd"><svg xmlns:xlink="http://www.w3.org/1999/xlink" version="1.1" class="highcharts-root" style="font-family:&quot;Lucida Grande&quot;, &quot;Lucida Sans Unicode&quot;, Arial, Helvetica, sans-serif;font-size:12px;" xmlns="http://www.w3.org/2000/svg" width="600" height="400" viewBox="0 0 600 400"><desc>Created with Highcharts 9.1.2</desc><defs><clipPath id="highcharts-ge6hjo0-565-"><rect x="0" y="0" width="482" height="304" fill="none"></rect></clipPath><clipPath id="highcharts-ge6hjo0-578-"><rect x="0" y="0" width="482" height="304" fill="none"></rect></clipPath><clipPath id="highcharts-ge6hjo0-591-"><rect x="0" y="0" width="482" height="304" fill="none"></rect></clipPath><clipPath id="highcharts-ge6hjo0-640-"><rect x="0" y="0" width="482" height="304" fill="none"></rect></clipPath></defs><rect fill="transparent" class="highcharts-background" x="0" y="0" width="600" height="400" rx="0" ry="0"></rect><rect fill="none" class="highcharts-plot-background" x="53" y="10" width="482" height="304"></rect><g class="highcharts-pane-group" data-z-index="0"></g><g class="highcharts-grid highcharts-xaxis-grid" data-z-index="1"><path fill="none" stroke-dasharray="none" data-z-index="1" class="highcharts-grid-line" d="M 72.5 10 L 72.5 314" opacity="1"></path><path fill="none" stroke-dasharray="none" data-z-index="1" class="highcharts-grid-line" d="M 112.5 10 L 112.5 314" opacity="1"></path><path fill="none" stroke-dasharray="none" data-z-index="1" class="highcharts-grid-line" d="M 152.5 10 L 152.5 314" opacity="1"></path><path fill="none" stroke-dasharray="none" data-z-index="1" class="highcharts-grid-line" d="M 193.5 10 L 193.5 314" opacity="1"></path><path fill="none" stroke-dasharray="none" data-z-index="1" class="highcharts-grid-line" d="M 233.5 10 L 233.5 314" opacity="1"></path><path fill="none" stroke-dasharray="none" data-z-index="1" class="highcharts-grid-line" d="M 273.5 10 L 273.5 314" opacity="1"></path><path fill="none" stroke-dasharray="none" data-z-index="1" class="highcharts-grid-line" d="M 313.5 10 L 313.5 314" opacity="1"></path><path fill="none" stroke-dasharray="none" data-z-index="1" class="highcharts-grid-line" d="M 353.5 10 L 353.5 314" opacity="1"></path><path fill="none" stroke-dasharray="none" data-z-index="1" class="highcharts-grid-line" d="M 393.5 10 L 393.5 314" opacity="1"></path><path fill="none" stroke-dasharray="none" data-z-index="1" class="highcharts-grid-line" d="M 434.5 10 L 434.5 314" opacity="1"></path><path fill="none" stroke-dasharray="none" data-z-index="1" class="highcharts-grid-line" d="M 474.5 10 L 474.5 314" opacity="1"></path><path fill="none" stroke-dasharray="none" data-z-index="1" class="highcharts-grid-line" d="M 514.5 10 L 514.5 314" opacity="1"></path></g><g class="highcharts-grid highcharts-yaxis-grid" data-z-index="1"><path fill="none" stroke="#e6e6e6" stroke-width="1" stroke-dasharray="none" data-z-index="1" class="highcharts-grid-line" d="M 53 314.5 L 535 314.5" opacity="1"></path><path fill="none" stroke="#e6e6e6" stroke-width="1" stroke-dasharray="none" data-z-index="1" class="highcharts-grid-line" d="M 53 263.5 L 535 263.5" opacity="1"></path><path fill="none" stroke="#e6e6e6" stroke-width="1" stroke-dasharray="none" data-z-index="1" class="highcharts-grid-line" d="M 53 213.5 L 535 213.5" opacity="1"></path><path fill="none" stroke="#e6e6e6" stroke-width="1" stroke-dasharray="none" data-z-index="1" class="highcharts-grid-line" d="M 53 162.5 L 535 162.5" opacity="1"></path><path fill="none" stroke="#e6e6e6" stroke-width="1" stroke-dasharray="none" data-z-index="1" class="highcharts-grid-line" d="M 53 111.5 L 535 111.5" opacity="1"></path><path fill="none" stroke="#e6e6e6" stroke-width="1" stroke-dasharray="none" data-z-index="1" class="highcharts-grid-line" d="M 53 61.5 L 535 61.5" opacity="1"></path><path fill="none" stroke="#e6e6e6" stroke-width="1" stroke-dasharray="none" data-z-index="1" class="highcharts-grid-line" d="M 53 9.5 L 535 9.5" opacity="1"></path></g><g class="highcharts-grid highcharts-yaxis-grid" data-z-index="1"><path fill="none" stroke-dasharray="none" data-z-index="1" class="highcharts-grid-line" d="M 53 314.5 L 535 314.5" opacity="1"></path><path fill="none" stroke-dasharray="none" data-z-index="1" class="highcharts-grid-line" d="M 53 263.5 L 535 263.5" opacity="1"></path><path fill="none" stroke-dasharray="none" data-z-index="1" class="highcharts-grid-line" d="M 53 213.5 L 535 213.5" opacity="1"></path><path fill="none" stroke-dasharray="none" data-z-index="1" class="highcharts-grid-line" d="M 53 162.5 L 535 162.5" opacity="1"></path><path fill="none" stroke-dasharray="none" data-z-index="1" class="highcharts-grid-line" d="M 53 111.5 L 535 111.5" opacity="1"></path><path fill="none" stroke-dasharray="none" data-z-index="1" class="highcharts-grid-line" d="M 53 61.5 L 535 61.5" opacity="1"></path><path fill="none" stroke-dasharray="none" data-z-index="1" class="highcharts-grid-line" d="M 53 10.5 L 535 10.5" opacity="1"></path></g><g class="highcharts-grid highcharts-yaxis-grid" data-z-index="1"></g><rect fill="none" class="highcharts-plot-border" data-z-index="1" x="53" y="10" width="482" height="304"></rect><g class="highcharts-axis highcharts-xaxis" data-z-index="2"><path fill="none" class="highcharts-axis-line" stroke="#ccd6eb" stroke-width="1" data-z-index="7" d="M 53 314.5 L 535 314.5"></path></g><g class="highcharts-axis highcharts-yaxis" data-z-index="2"><path fill="none" class="highcharts-axis-line" data-z-index="7" d="M 53 10 L 53 314"></path></g><g class="highcharts-axis highcharts-yaxis" data-z-index="2"><path fill="none" class="highcharts-axis-line" data-z-index="7" d="M 535 10 L 535 314"></path></g><g class="highcharts-axis highcharts-yaxis" data-z-index="2"><path fill="none" class="highcharts-axis-line" data-z-index="7" d="M 590 10 L 590 314"></path></g><g class="highcharts-series-group" data-z-index="3"><g class="highcharts-series highcharts-series-0 highcharts-column-series" data-z-index="0.1" opacity="1" transform="translate(53,10) scale(1 1)" clip-path="url(#highcharts-ge6hjo0-578-)"><rect x="3.5" y="22.5" width="33" height="282" fill="#a8c8ff" stroke="#ffffff" stroke-width="1" opacity="1" class="highcharts-point"></rect><rect x="43.5" y="125.5" width="33" height="179" fill="#a8c8ff" stroke="#ffffff" stroke-width="1" opacity="1" class="highcharts-point"></rect><rect x="83.5" y="158.5" width="33" height="146" fill="#a8c8ff" stroke="#ffffff" stroke-width="1" opacity="1" class="highcharts-point"></rect><rect x="124.5" y="234.5" width="33" height="70" fill="#a8c8ff" stroke="#ffffff" stroke-width="1" opacity="1" class="highcharts-point"></rect><rect x="164.5" y="290.5" width="33" height="14" fill="#a8c8ff" stroke="#ffffff" stroke-width="1" opacity="1" class="highcharts-point"></rect><rect x="204.5" y="302.5" width="33" height="2" fill="#a8c8ff" stroke="#ffffff" stroke-width="1" opacity="1" class="highcharts-point"></rect><rect x="244.5" y="304.5" width="33" height="0" fill="#a8c8ff" stroke="#ffffff" stroke-width="1" opacity="1" class="highcharts-point"></rect><rect x="284.5" y="303.5" width="33" height="1" fill="#a8c8ff" stroke="#ffffff" stroke-width="1" opacity="1" class="highcharts-point"></rect><rect x="324.5" y="303.5" width="33" height="1" fill="#a8c8ff" stroke="#ffffff" stroke-width="1" opacity="1" class="highcharts-point"></rect><rect x="365.5" y="291.5" width="33" height="13" fill="#a8c8ff" stroke="#ffffff" stroke-width="1" opacity="1" class="highcharts-point"></rect><rect x="405.5" y="201.5" width="33" height="103" fill="#a8c8ff" stroke="#ffffff" stroke-width="1" opacity="1" class="highcharts-point"></rect><rect x="445.5" y="16.5" width="33" height="288" fill="#a8c8ff" stroke="#ffffff" stroke-width="1" opacity="1" class="highcharts-point"></rect></g><g class="highcharts-markers highcharts-series-0 highcharts-column-series" data-z-index="0.1" opacity="1" transform="translate(53,10) scale(1 1)" clip-path="none"></g><g class="highcharts-series highcharts-series-1 highcharts-spline-series" data-z-index="0.1" opacity="1" transform="translate(53,10) scale(1 1)" clip-path="url(#highcharts-ge6hjo0-591-)"><path fill="none" d="M 20.083333333333 101.33333333333334 C 20.083333333333 101.33333333333334 44.1833333333332 101.33333333333334 60.25 101.33333333333334 C 76.316666666668 101.33333333333334 84.350000000002 101.33333333333334 100.41666666667 101.33333333333334 C 116.48333333333399 101.33333333333334 124.516666666666 101.33333333333334 140.58333333333 101.33333333333334 C 156.649999999998 101.33333333333334 164.68333333333197 101.33333333333334 180.75 101.33333333333334 C 196.81666666666803 101.33333333333334 204.850000000002 101.33333333333334 220.91666666667 101.33333333333334 C 236.98333333333403 101.33333333333334 245.01666666666603 101.33333333333334 261.08333333333 101.33333333333334 C 277.149999999998 101.33333333333334 285.18333333333203 97.28000000000002 301.25 91.20000000000002 C 317.31666666666797 85.12 325.350000000002 77.01333333333407 341.41666666667 70.93333333333334 C 357.48333333333403 64.85333333333408 365.51666666666597 60.80000000000001 381.58333333333 60.80000000000001 C 397.649999999998 60.80000000000001 405.68333333333203 62.82666666666667 421.75 70.93333333333334 C 437.81666666666797 79.03999999999999 461.91666666667 101.33333333333334 461.91666666667 101.33333333333334" class="highcharts-graph" data-z-index="1" stroke="#DE2900" stroke-width="2" stroke-linejoin="round" stroke-linecap="round"></path></g><g class="highcharts-markers highcharts-series-1 highcharts-spline-series" data-z-index="0.1" opacity="1" transform="translate(53,10) scale(1 1)" clip-path="none"></g><g class="highcharts-series highcharts-series-2 highcharts-spline-series" data-z-index="0.1" opacity="1" transform="translate(53,10) scale(1 1)" clip-path="url(#highcharts-ge6hjo0-591-)"><path fill="none" d="M 20.083333333333 60.80000000000001 C 20.083333333333 60.80000000000001 44.1833333333332 60.80000000000001 60.25 60.80000000000001 C 76.316666666668 60.80000000000001 84.350000000002 60.80000000000001 100.41666666667 60.80000000000001 C 116.48333333333399 60.80000000000001 124.516666666666 81.06666666666666 140.58333333333 81.06666666666666 C 156.649999999998 81.06666666666666 164.68333333333197 81.06666666666666 180.75 81.06666666666666 C 196.81666666666803 81.06666666666666 204.850000000002 81.06666666666666 220.91666666667 81.06666666666666 C 236.98333333333403 81.06666666666666 245.01666666666603 81.06666666666666 261.08333333333 81.06666666666666 C 277.149999999998 81.06666666666666 285.18333333333203 66.88 301.25 60.80000000000001 C 317.31666666666797 54.72000000000002 325.350000000002 54.72000000000051 341.41666666667 50.666666666666686 C 357.48333333333403 46.613333333333856 365.51666666666597 40.53333333333336 381.58333333333 40.53333333333336 C 397.649999999998 40.53333333333336 405.68333333333203 40.53333333333336 421.75 40.53333333333336 C 437.81666666666797 40.53333333333336 461.91666666667 60.80000000000001 461.91666666667 60.80000000000001" class="highcharts-graph" data-z-index="1" stroke="#ff9480" stroke-width="2" stroke-dasharray="8,6"></path></g><g class="highcharts-markers highcharts-series-2 highcharts-spline-series" data-z-index="0.1" opacity="1" transform="translate(53,10) scale(1 1)" clip-path="none"></g><g class="highcharts-series highcharts-series-3 highcharts-spline-series" data-z-index="0.1" opacity="1" transform="translate(53,10) scale(1 1)" clip-path="url(#highcharts-ge6hjo0-591-)"><path fill="none" d="M 20.083333333333 182.4 C 20.083333333333 182.4 44.1833333333332 188.48000000000016 60.25 192.53333333333333 C 76.316666666668 196.58666666666682 84.350000000002 198.61333333333286 100.41666666667 202.66666666666669 C 116.48333333333399 206.71999999999952 124.516666666666 208.74666666666718 140.58333333333 212.8 C 156.649999999998 216.85333333333384 164.68333333333197 218.88000000000002 180.75 222.93333333333334 C 196.81666666666803 226.98666666666668 204.850000000002 229.01333333333284 220.91666666667 233.06666666666666 C 236.98333333333403 237.1199999999995 245.01666666666603 243.2 261.08333333333 243.2 C 277.149999999998 243.2 285.18333333333203 243.2 301.25 243.2 C 317.31666666666797 243.2 325.350000000002 229.01333333333406 341.41666666667 222.93333333333334 C 357.48333333333403 216.85333333333412 365.51666666666597 218.87999999999928 381.58333333333 212.8 C 397.649999999998 206.71999999999923 405.68333333333203 198.61333333333332 421.75 192.53333333333333 C 437.81666666666797 186.45333333333332 461.91666666667 182.4 461.91666666667 182.4" class="highcharts-graph" data-z-index="1" stroke="#2354ca" stroke-width="2" stroke-linejoin="round" stroke-linecap="round"></path></g><g class="highcharts-markers highcharts-series-3 highcharts-spline-series" data-z-index="0.1" opacity="1" transform="translate(53,10) scale(1 1)" clip-path="none"></g><g class="highcharts-series highcharts-series-4 highcharts-spline-series" data-z-index="0.1" opacity="1" transform="translate(53,10) scale(1 1)" clip-path="url(#highcharts-ge6hjo0-591-)"><path fill="none" d="M 20.083333333333 212.8 C 20.083333333333 212.8 44.1833333333332 218.88000000000017 60.25 222.93333333333334 C 76.316666666668 226.98666666666682 84.350000000002 233.06666666666666 100.41666666667 233.06666666666666 C 116.48333333333399 233.06666666666666 124.516666666666 233.06666666666666 140.58333333333 233.06666666666666 C 156.649999999998 233.06666666666666 164.68333333333197 237.11999999999998 180.75 243.2 C 196.81666666666803 249.28000000000003 204.850000000002 257.386666666666 220.91666666667 263.4666666666667 C 236.98333333333403 269.54666666666594 245.01666666666603 273.6 261.08333333333 273.6 C 277.149999999998 273.6 285.18333333333203 267.52000000000004 301.25 263.4666666666667 C 317.31666666666797 259.41333333333336 325.350000000002 257.3866666666671 341.41666666667 253.33333333333334 C 357.48333333333403 249.2800000000005 365.51666666666597 247.25333333333285 381.58333333333 243.2 C 397.649999999998 239.14666666666614 405.68333333333203 237.11999999999998 421.75 233.06666666666666 C 437.81666666666797 229.01333333333332 461.91666666667 222.93333333333334 461.91666666667 222.93333333333334" class="highcharts-graph" data-z-index="1" stroke="#6CA8E8" stroke-width="2" stroke-dasharray="8,6"></path></g><g class="highcharts-markers highcharts-series-4 highcharts-spline-series" data-z-index="0.1" opacity="1" transform="translate(53,10) scale(1 1)" clip-path="none"></g><g class="highcharts-series highcharts-series-5 highcharts-spline-series" visibility="hidden" data-z-index="0.1" opacity="1" transform="translate(53,10) scale(1 1)" clip-path="url(#highcharts-ge6hjo0-640-)"><path fill="none" d="M 0 0" class="highcharts-graph" data-z-index="1" stroke="#79e505" stroke-width="2" stroke-linejoin="round" stroke-linecap="round"></path></g><g class="highcharts-markers highcharts-series-5 highcharts-spline-series" visibility="hidden" data-z-index="0.1" opacity="1" transform="translate(53,10) scale(1 1)" clip-path="none"></g><g class="highcharts-series highcharts-series-6 highcharts-areasplinerange-series" visibility="hidden" data-z-index="0.1" opacity="1" transform="translate(53,10) scale(1 1)" clip-path="url(#highcharts-ge6hjo0-640-)"><path fill="rgb(121,229,5)" fill-opacity="0.5" d="M 0 0" class="highcharts-area" data-z-index="0"></path><path fill="none" d="M 0 0" class="highcharts-graph" data-z-index="1" stroke="#79e505" stroke-width="1" stroke-linejoin="round" stroke-linecap="round"></path></g><g class="highcharts-markers highcharts-series-6 highcharts-areasplinerange-series" visibility="hidden" data-z-index="0.1" opacity="1" transform="translate(53,10) scale(1 1)" clip-path="none"></g></g><text x="10" text-anchor="start" class="highcharts-title" data-z-index="4" style="color:#333333;font-size:18px;fill:#333333;" y="24"></text><text x="10" text-anchor="start" class="highcharts-subtitle" data-z-index="4" style="color:#666666;fill:#666666;" y="24"></text><text x="10" text-anchor="start" class="highcharts-caption" data-z-index="4" style="color:#666666;fill:#666666;" y="397"></text><g class="highcharts-data-labels highcharts-series-1 highcharts-spline-series" data-z-index="6" opacity="1" transform="translate(53,10) scale(1 1)"><g class="highcharts-label highcharts-data-label highcharts-data-label-color-undefined" data-z-index="1" transform="translate(1,79)"><text x="5" data-z-index="1" y="16" style="color:#9e3203;font-size:11px;font-weight:bold;fill:#9e3203;"><tspan class="highcharts-text-outline" fill="#FFFFFF" stroke="#FFFFFF" stroke-width="2px" stroke-linejoin="round" style="">25 °C<tspan x="5" y="16">​</tspan></tspan>25 °C</text></g><g class="highcharts-label highcharts-data-label highcharts-data-label-color-undefined" data-z-index="1" transform="translate(41,79)"><text x="5" data-z-index="1" y="16" style="color:#9e3203;font-size:11px;font-weight:bold;fill:#9e3203;"><tspan class="highcharts-text-outline" fill="#FFFFFF" stroke="#FFFFFF" stroke-width="2px" stroke-linejoin="round">25 °C<tspan x="5" y="16">​</tspan></tspan>25 °C</text></g><g class="highcharts-label highcharts-data-label highcharts-data-label-color-undefined" data-z-index="1" transform="translate(82,79)"><text x="5" data-z-index="1" y="16" style="color:#9e3203;font-size:11px;font-weight:bold;fill:#9e3203;"><tspan class="highcharts-text-outline" fill="#FFFFFF" stroke="#FFFFFF" stroke-width="2px" stroke-linejoin="round">25 °C<tspan x="5" y="16">​</tspan></tspan>25 °C</text></g><g class="highcharts-label highcharts-data-label highcharts-data-label-color-undefined" data-z-index="1" transform="translate(122,79)"><text x="5" data-z-index="1" y="16" style="color:#9e3203;font-size:11px;font-weight:bold;fill:#9e3203;"><tspan class="highcharts-text-outline" fill="#FFFFFF" stroke="#FFFFFF" stroke-width="2px" stroke-linejoin="round">25 °C<tspan x="5" y="16">​</tspan></tspan>25 °C</text></g><g class="highcharts-label highcharts-data-label highcharts-data-label-color-undefined" data-z-index="1" transform="translate(162,79)"><text x="5" data-z-index="1" y="16" style="color:#9e3203;font-size:11px;font-weight:bold;fill:#9e3203;"><tspan class="highcharts-text-outline" fill="#FFFFFF" stroke="#FFFFFF" stroke-width="2px" stroke-linejoin="round">25 °C<tspan x="5" y="16">​</tspan></tspan>25 °C</text></g><g class="highcharts-label highcharts-data-label highcharts-data-label-color-undefined" data-z-index="1" transform="translate(202,79)"><text x="5" data-z-index="1" y="16" style="color:#9e3203;font-size:11px;font-weight:bold;fill:#9e3203;"><tspan class="highcharts-text-outline" fill="#FFFFFF" stroke="#FFFFFF" stroke-width="2px" stroke-linejoin="round">25 °C<tspan x="5" y="16">​</tspan></tspan>25 °C</text></g><g class="highcharts-label highcharts-data-label highcharts-data-label-color-undefined" data-z-index="1" transform="translate(242,79)"><text x="5" data-z-index="1" y="16" style="color:#9e3203;font-size:11px;font-weight:bold;fill:#9e3203;"><tspan class="highcharts-text-outline" fill="#FFFFFF" stroke="#FFFFFF" stroke-width="2px" stroke-linejoin="round">25 °C<tspan x="5" y="16">​</tspan></tspan>25 °C</text></g><g class="highcharts-label highcharts-data-label highcharts-data-label-color-undefined" data-z-index="1" transform="translate(282,69)"><text x="5" data-z-index="1" y="16" style="color:#9e3203;font-size:11px;font-weight:bold;fill:#9e3203;"><tspan class="highcharts-text-outline" fill="#FFFFFF" stroke="#FFFFFF" stroke-width="2px" stroke-linejoin="round">26 °C<tspan x="5" y="16">​</tspan></tspan>26 °C</text></g><g class="highcharts-label highcharts-data-label highcharts-data-label-color-undefined" data-z-index="1" transform="translate(323,49)"><text x="5" data-z-index="1" y="16" style="color:#9e3203;font-size:11px;font-weight:bold;fill:#9e3203;"><tspan class="highcharts-text-outline" fill="#FFFFFF" stroke="#FFFFFF" stroke-width="2px" stroke-linejoin="round">28 °C<tspan x="5" y="16">​</tspan></tspan>28 °C</text></g><g class="highcharts-label highcharts-data-label highcharts-data-label-color-undefined" data-z-index="1" transform="translate(363,39)"><text x="5" data-z-index="1" y="16" style="color:#9e3203;font-size:11px;font-weight:bold;fill:#9e3203;"><tspan class="highcharts-text-outline" fill="#FFFFFF" stroke="#FFFFFF" stroke-width="2px" stroke-linejoin="round">29 °C<tspan x="5" y="16">​</tspan></tspan>29 °C</text></g><g class="highcharts-label highcharts-data-label highcharts-data-label-color-undefined" data-z-index="1" transform="translate(403,49)"><text x="5" data-z-index="1" y="16" style="color:#9e3203;font-size:11px;font-weight:bold;fill:#9e3203;"><tspan class="highcharts-text-outline" fill="#FFFFFF" stroke="#FFFFFF" stroke-width="2px" stroke-linejoin="round">28 °C<tspan x="5" y="16">​</tspan></tspan>28 °C</text></g><g class="highcharts-label highcharts-data-label highcharts-data-label-color-undefined" data-z-index="1" transform="translate(443,79)"><text x="5" data-z-index="1" y="16" style="color:#9e3203;font-size:11px;font-weight:bold;fill:#9e3203;"><tspan class="highcharts-text-outline" fill="#FFFFFF" stroke="#FFFFFF" stroke-width="2px" stroke-linejoin="round">25 °C<tspan x="5" y="16">​</tspan></tspan>25 °C</text></g></g><g class="highcharts-data-labels highcharts-series-3 highcharts-spline-series" data-z-index="6" opacity="1" transform="translate(53,10) scale(1 1)"><g class="highcharts-label highcharts-data-label highcharts-data-label-color-undefined" data-z-index="1" transform="translate(1,160)"><text x="5" data-z-index="1" y="16" style="color:#2354ca;font-size:11px;font-weight:bold;fill:#2354ca;"><tspan class="highcharts-text-outline" fill="#FFFFFF" stroke="#FFFFFF" stroke-width="2px" stroke-linejoin="round">17 °C<tspan x="5" y="16">​</tspan></tspan>17 °C</text></g><g class="highcharts-label highcharts-data-label highcharts-data-label-color-undefined" data-z-index="1" transform="translate(41,171)"><text x="5" data-z-index="1" y="16" style="color:#2354ca;font-size:11px;font-weight:bold;fill:#2354ca;"><tspan class="highcharts-text-outline" fill="#FFFFFF" stroke="#FFFFFF" stroke-width="2px" stroke-linejoin="round">16 °C<tspan x="5" y="16">​</tspan></tspan>16 °C</text></g><g class="highcharts-label highcharts-data-label highcharts-data-label-color-undefined" data-z-index="1" transform="translate(82,181)"><text x="5" data-z-index="1" y="16" style="color:#2354ca;font-size:11px;font-weight:bold;fill:#2354ca;"><tspan class="highcharts-text-outline" fill="#FFFFFF" stroke="#FFFFFF" stroke-width="2px" stroke-linejoin="round">15 °C<tspan x="5" y="16">​</tspan></tspan>15 °C</text></g><g class="highcharts-label highcharts-data-label highcharts-data-label-color-undefined" data-z-index="1" transform="translate(122,191)"><text x="5" data-z-index="1" y="16" style="color:#2354ca;font-size:11px;font-weight:bold;fill:#2354ca;"><tspan class="highcharts-text-outline" fill="#FFFFFF" stroke="#FFFFFF" stroke-width="2px" stroke-linejoin="round">14 °C<tspan x="5" y="16">​</tspan></tspan>14 °C</text></g><g class="highcharts-label highcharts-data-label highcharts-data-label-color-undefined" data-z-index="1" transform="translate(162,201)"><text x="5" data-z-index="1" y="16" style="color:#2354ca;font-size:11px;font-weight:bold;fill:#2354ca;"><tspan class="highcharts-text-outline" fill="#FFFFFF" stroke="#FFFFFF" stroke-width="2px" stroke-linejoin="round">13 °C<tspan x="5" y="16">​</tspan></tspan>13 °C</text></g><g class="highcharts-label highcharts-data-label highcharts-data-label-color-undefined" data-z-index="1" transform="translate(202,211)"><text x="5" data-z-index="1" y="16" style="color:#2354ca;font-size:11px;font-weight:bold;fill:#2354ca;"><tspan class="highcharts-text-outline" fill="#FFFFFF" stroke="#FFFFFF" stroke-width="2px" stroke-linejoin="round">12 °C<tspan x="5" y="16">​</tspan></tspan>12 °C</text></g><g class="highcharts-label highcharts-data-label highcharts-data-label-color-undefined" data-z-index="1" transform="translate(242,221)"><text x="5" data-z-index="1" y="16" style="color:#2354ca;font-size:11px;font-weight:bold;fill:#2354ca;"><tspan class="highcharts-text-outline" fill="#FFFFFF" stroke="#FFFFFF" stroke-width="2px" stroke-linejoin="round">11 °C<tspan x="5" y="16">​</tspan></tspan>11 °C</text></g><g class="highcharts-label highcharts-data-label highcharts-data-label-color-undefined" data-z-index="1" transform="translate(282,221)"><text x="5" data-z-index="1" y="16" style="color:#2354ca;font-size:11px;font-weight:bold;fill:#2354ca;"><tspan class="highcharts-text-outline" fill="#FFFFFF" stroke="#FFFFFF" stroke-width="2px" stroke-linejoin="round">11 °C<tspan x="5" y="16">​</tspan></tspan>11 °C</text></g><g class="highcharts-label highcharts-data-label highcharts-data-label-color-undefined" data-z-index="1" transform="translate(323,201)"><text x="5" data-z-index="1" y="16" style="color:#2354ca;font-size:11px;font-weight:bold;fill:#2354ca;"><tspan class="highcharts-text-outline" fill="#FFFFFF" stroke="#FFFFFF" stroke-width="2px" stroke-linejoin="round">13 °C<tspan x="5" y="16">​</tspan></tspan>13 °C</text></g><g class="highcharts-label highcharts-data-label highcharts-data-label-color-undefined" data-z-index="1" transform="translate(363,191)"><text x="5" data-z-index="1" y="16" style="color:#2354ca;font-size:11px;font-weight:bold;fill:#2354ca;"><tspan class="highcharts-text-outline" fill="#FFFFFF" stroke="#FFFFFF" stroke-width="2px" stroke-linejoin="round">14 °C<tspan x="5" y="16">​</tspan></tspan>14 °C</text></g><g class="highcharts-label highcharts-data-label highcharts-data-label-color-undefined" data-z-index="1" transform="translate(403,171)"><text x="5" data-z-index="1" y="16" style="color:#2354ca;font-size:11px;font-weight:bold;fill:#2354ca;"><tspan class="highcharts-text-outline" fill="#FFFFFF" stroke="#FFFFFF" stroke-width="2px" stroke-linejoin="round">16 °C<tspan x="5" y="16">​</tspan></tspan>16 °C</text></g><g class="highcharts-label highcharts-data-label highcharts-data-label-color-undefined" data-z-index="1" transform="translate(443,160)"><text x="5" data-z-index="1" y="16" style="color:#2354ca;font-size:11px;font-weight:bold;fill:#2354ca;"><tspan class="highcharts-text-outline" fill="#FFFFFF" stroke="#FFFFFF" stroke-width="2px" stroke-linejoin="round">17 °C<tspan x="5" y="16">​</tspan></tspan>17 °C</text></g></g><g class="highcharts-legend highcharts-no-tooltip" data-z-index="7" transform="translate(59,346)"><rect fill="none" class="highcharts-legend-box" rx="0" ry="0" x="0" y="0" width="481" height="39" visibility="visible"></rect><g data-z-index="1"><g><g class="highcharts-legend-item highcharts-column-series highcharts-color-undefined highcharts-series-0" data-z-index="1" transform="translate(8,3)"><text x="21" style="color:#333333;cursor:pointer;font-size:12px;font-weight:bold;fill:#333333;" text-anchor="start" data-z-index="2" y="15">Precipitation</text><rect x="2" y="4" width="12" height="12" fill="#a8c8ff" rx="6" ry="6" class="highcharts-point" data-z-index="3"></rect></g><g class="highcharts-legend-item highcharts-spline-series highcharts-color-undefined highcharts-series-1" data-z-index="1" transform="translate(169.71875,3)"><path fill="none" d="M 0 11 L 16 11" class="highcharts-graph" stroke="#DE2900" stroke-width="2"></path><text x="21" y="15" style="color:#333333;cursor:pointer;font-size:12px;font-weight:bold;fill:#333333;" text-anchor="start" data-z-index="2">Mean daily maximum</text></g><g class="highcharts-legend-item highcharts-spline-series highcharts-color-undefined highcharts-series-2" data-z-index="1" transform="translate(331.4375,3)"><path fill="none" d="M 0 11 L 16 11" class="highcharts-graph" stroke-dasharray="8,6" stroke="#ff9480" stroke-width="2"></path><text x="21" y="15" style="color:#333333;cursor:pointer;font-size:12px;font-weight:bold;fill:#333333;" text-anchor="start" data-z-index="2">Hot days</text></g><g class="highcharts-legend-item highcharts-spline-series highcharts-color-undefined highcharts-series-3" data-z-index="1" transform="translate(8,17)"><path fill="none" d="M 0 11 L 16 11" class="highcharts-graph" stroke="#2354ca" stroke-width="2"></path><text x="21" y="15" style="color:#333333;cursor:pointer;font-size:12px;font-weight:bold;fill:#333333;" text-anchor="start" data-z-index="2">Mean daily minimum</text></g><g class="highcharts-legend-item highcharts-spline-series highcharts-color-undefined highcharts-series-4" data-z-index="1" transform="translate(169.71875,17)"><path fill="none" d="M 0 11 L 16 11" class="highcharts-graph" stroke-dasharray="8,6" stroke="#6CA8E8" stroke-width="2"></path><text x="21" y="15" style="color:#333333;cursor:pointer;font-size:12px;font-weight:bold;fill:#333333;" text-anchor="start" data-z-index="2">Cold nights</text></g><g class="highcharts-legend-item highcharts-spline-series highcharts-color-undefined highcharts-series-5 highcharts-legend-item-hidden" data-z-index="1" transform="translate(331.4375,17)"><path fill="none" d="M 0 11 L 16 11" class="highcharts-graph" stroke="#cccccc" stroke-width="2"></path><text x="21" y="15" style="color:#cccccc;cursor:pointer;font-size:12px;font-weight:bold;fill:#cccccc;" text-anchor="start" data-z-index="2">Wind speed</text></g></g></g></g><g class="highcharts-axis-labels highcharts-xaxis-labels" data-z-index="7"><text x="73.083333333333" style="color:#666666;cursor:default;font-size:11px;fill:#666666;" text-anchor="middle" transform="translate(0,0)" y="333" opacity="1">Jan</text><text x="113.25" style="color:#666666;cursor:default;font-size:11px;fill:#666666;" text-anchor="middle" transform="translate(0,0)" y="333" opacity="1">Feb</text><text x="153.41666666667" style="color:#666666;cursor:default;font-size:11px;fill:#666666;" text-anchor="middle" transform="translate(0,0)" y="333" opacity="1">Mar</text><text x="193.58333333333" style="color:#666666;cursor:default;font-size:11px;fill:#666666;" text-anchor="middle" transform="translate(0,0)" y="333" opacity="1">Apr</text><text x="233.75" style="color:#666666;cursor:default;font-size:11px;fill:#666666;" text-anchor="middle" transform="translate(0,0)" y="333" opacity="1">May</text><text x="273.91666666667" style="color:#666666;cursor:default;font-size:11px;fill:#666666;" text-anchor="middle" transform="translate(0,0)" y="333" opacity="1">Jun</text><text x="314.08333333333" style="color:#666666;cursor:default;font-size:11px;fill:#666666;" text-anchor="middle" transform="translate(0,0)" y="333" opacity="1">Jul</text><text x="354.25" style="color:#666666;cursor:default;font-size:11px;fill:#666666;" text-anchor="middle" transform="translate(0,0)" y="333" opacity="1">Aug</text><text x="394.41666666667" style="color:#666666;cursor:default;font-size:11px;fill:#666666;" text-anchor="middle" transform="translate(0,0)" y="333" opacity="1">Sep</text><text x="434.58333333333" style="color:#666666;cursor:default;font-size:11px;fill:#666666;" text-anchor="middle" transform="translate(0,0)" y="333" opacity="1">Oct</text><text x="474.75" style="color:#666666;cursor:default;font-size:11px;fill:#666666;" text-anchor="middle" transform="translate(0,0)" y="333" opacity="1">Nov</text><text x="514.91666666667" style="color:#666666;cursor:default;font-size:11px;fill:#666666;" text-anchor="middle" transform="translate(0,0)" y="333" opacity="1">Dec</text></g><g class="highcharts-axis-labels highcharts-yaxis-labels" data-z-index="7"><text x="38" style="color:#666666;cursor:default;font-size:11px;fill:#666666;" text-anchor="end" transform="translate(0,0)" y="319" opacity="1">5 °C</text><text x="38" style="color:#666666;cursor:default;font-size:11px;fill:#666666;" text-anchor="end" transform="translate(0,0)" y="268" opacity="1">10 °C</text><text x="38" style="color:#666666;cursor:default;font-size:11px;fill:#666666;" text-anchor="end" transform="translate(0,0)" y="218" opacity="1">15 °C</text><text x="38" style="color:#666666;cursor:default;font-size:11px;fill:#666666;" text-anchor="end" transform="translate(0,0)" y="167" opacity="1">20 °C</text><text x="38" style="color:#666666;cursor:default;font-size:11px;fill:#666666;" text-anchor="end" transform="translate(0,0)" y="116" opacity="1">25 °C</text><text x="38" style="color:#666666;cursor:default;font-size:11px;fill:#666666;" text-anchor="end" transform="translate(0,0)" y="66" opacity="1">30 °C</text><text x="38" style="color:#666666;cursor:default;font-size:11px;fill:#666666;" text-anchor="end" transform="translate(0,0)" y="15" opacity="1">35 °C</text></g><g class="highcharts-axis-labels highcharts-yaxis-labels" data-z-index="7"><text x="550" style="color:#666666;cursor:default;font-size:11px;fill:#666666;" text-anchor="start" transform="translate(0,0)" y="319" opacity="1">0 mm</text><text x="550" style="color:#666666;cursor:default;font-size:11px;fill:#666666;" text-anchor="start" transform="translate(0,0)" y="268" opacity="1">50 mm</text><text x="550" style="color:#666666;cursor:default;font-size:11px;fill:#666666;" text-anchor="start" transform="translate(0,0)" y="218" opacity="1">100 mm</text><text x="550" style="color:#666666;cursor:default;font-size:11px;fill:#666666;" text-anchor="start" transform="translate(0,0)" y="167" opacity="1">150 mm</text><text x="550" style="color:#666666;cursor:default;font-size:11px;fill:#666666;" text-anchor="start" transform="translate(0,0)" y="116" opacity="1">200 mm</text><text x="550" style="color:#666666;cursor:default;font-size:11px;fill:#666666;" text-anchor="start" transform="translate(0,0)" y="66" opacity="1">250 mm</text><text x="550" style="color:#666666;cursor:default;font-size:11px;fill:#666666;" text-anchor="start" transform="translate(0,0)" y="15" opacity="1">300 mm</text></g><g class="highcharts-axis-labels highcharts-yaxis-labels" data-z-index="7"></g><text x="560" class="highcharts-credits" text-anchor="end" data-z-index="8" style="cursor:pointer;color:#999999;font-size:9px;font:12px meteoblue, sans-serif;fill:#999999;" y="390">meteoblue</text></svg>